<svg width="95" height="95" viewBox="0 0 95 95" fill="none" xmlns="http://www.w3.org/2000/svg">
<circle cx="47.5" cy="47.5" r="46.5" stroke="#22291F" stroke-width="2"/>
<mask id="path-2-outside-1_530_200" maskUnits="userSpaceOnUse" x="29" y="24" width="31" height="51" fill="black">
<rect fill="white" x="29" y="24" width="31" height="51"/>
<path d="M57.4688 26.4062V73H44.5938V42.4688C42.5104 44.0521 40.4896 45.3333 38.5312 46.3125C36.5938 47.2917 34.1562 48.2292 31.2188 49.125V38.6875C35.5521 37.2917 38.9167 35.6146 41.3125 33.6562C43.7083 31.6979 45.5833 29.2812 46.9375 26.4062H57.4688Z"/>
</mask>
<path d="M57.4688 26.4062V73H44.5938V42.4688C42.5104 44.0521 40.4896 45.3333 38.5312 46.3125C36.5938 47.2917 34.1562 48.2292 31.2188 49.125V38.6875C35.5521 37.2917 38.9167 35.6146 41.3125 33.6562C43.7083 31.6979 45.5833 29.2812 46.9375 26.4062H57.4688Z" fill="#EBEBEB"/>
<path d="M57.4688 26.4062H59.4688V24.4062H57.4688V26.4062ZM57.4688 73V75H59.4688V73H57.4688ZM44.5938 73H42.5938V75H44.5938V73ZM44.5938 42.4688H46.5938V38.4367L43.3836 40.8764L44.5938 42.4688ZM38.5312 46.3125L37.6368 44.5236L37.6292 44.5275L38.5312 46.3125ZM31.2188 49.125H29.2188V51.8259L31.8022 51.038L31.2188 49.125ZM31.2188 38.6875L30.6055 36.7838L29.2188 37.2305V38.6875H31.2188ZM41.3125 33.6562L42.5782 35.2048L41.3125 33.6562ZM46.9375 26.4062V24.4062H45.6688L45.1282 25.554L46.9375 26.4062ZM55.4688 26.4062V73H59.4688V26.4062H55.4688ZM57.4688 71H44.5938V75H57.4688V71ZM46.5938 73V42.4688H42.5938V73H46.5938ZM43.3836 40.8764C41.3807 42.3986 39.465 43.6095 37.6368 44.5236L39.4257 48.1014C41.5141 47.0571 43.6402 45.7055 45.8039 44.0611L43.3836 40.8764ZM37.6292 44.5275C35.8263 45.4386 33.5043 46.3371 30.6353 47.212L31.8022 51.038C34.8082 50.1213 37.3612 49.1447 39.4333 48.0975L37.6292 44.5275ZM33.2188 49.125V38.6875H29.2188V49.125H33.2188ZM31.832 40.5912C36.3012 39.1516 39.9205 37.3772 42.5782 35.2048L40.0468 32.1077C37.9128 33.852 34.803 35.4318 30.6055 36.7838L31.832 40.5912ZM42.5782 35.2048C45.2113 33.0526 47.2692 30.3957 48.7468 27.2585L45.1282 25.554C43.8975 28.1668 42.2054 30.3433 40.0468 32.1077L42.5782 35.2048ZM46.9375 28.4062H57.4688V24.4062H46.9375V28.4062Z" fill="#22291F" mask="url(#path-2-outside-1_530_200)"/>
</svg>
