<svg width="95" height="95" viewBox="0 0 95 95" fill="none" xmlns="http://www.w3.org/2000/svg">
<circle cx="47.5" cy="47.5" r="46.5" stroke="#22291F" stroke-width="2"/>
<mask id="path-2-outside-1_547_444" maskUnits="userSpaceOnUse" x="25" y="24" width="43" height="51" fill="black">
<rect fill="white" x="25" y="24" width="43" height="51"/>
<path d="M65.875 73H27.6875C28.125 69.2292 29.4479 65.6875 31.6562 62.375C33.8854 59.0417 38.0521 55.1146 44.1562 50.5938C47.8854 47.8229 50.2708 45.7188 51.3125 44.2812C52.3542 42.8438 52.875 41.4792 52.875 40.1875C52.875 38.7917 52.3542 37.6042 51.3125 36.625C50.2917 35.625 49 35.125 47.4375 35.125C45.8125 35.125 44.4792 35.6354 43.4375 36.6562C42.4167 37.6771 41.7292 39.4792 41.375 42.0625L28.625 41.0312C29.125 37.4479 30.0417 34.6562 31.375 32.6562C32.7083 30.6354 34.5833 29.0938 37 28.0312C39.4375 26.9479 42.8021 26.4062 47.0938 26.4062C51.5729 26.4062 55.0521 26.9167 57.5312 27.9375C60.0312 28.9583 61.9896 30.5312 63.4062 32.6562C64.8438 34.7604 65.5625 37.125 65.5625 39.75C65.5625 42.5417 64.7396 45.2083 63.0938 47.75C61.4688 50.2917 58.5 53.0833 54.1875 56.125C51.625 57.8958 49.9062 59.1354 49.0312 59.8438C48.1771 60.5521 47.1667 61.4792 46 62.625H65.875V73Z"/>
</mask>
<path d="M65.875 73H27.6875C28.125 69.2292 29.4479 65.6875 31.6562 62.375C33.8854 59.0417 38.0521 55.1146 44.1562 50.5938C47.8854 47.8229 50.2708 45.7188 51.3125 44.2812C52.3542 42.8438 52.875 41.4792 52.875 40.1875C52.875 38.7917 52.3542 37.6042 51.3125 36.625C50.2917 35.625 49 35.125 47.4375 35.125C45.8125 35.125 44.4792 35.6354 43.4375 36.6562C42.4167 37.6771 41.7292 39.4792 41.375 42.0625L28.625 41.0312C29.125 37.4479 30.0417 34.6562 31.375 32.6562C32.7083 30.6354 34.5833 29.0938 37 28.0312C39.4375 26.9479 42.8021 26.4062 47.0938 26.4062C51.5729 26.4062 55.0521 26.9167 57.5312 27.9375C60.0312 28.9583 61.9896 30.5312 63.4062 32.6562C64.8438 34.7604 65.5625 37.125 65.5625 39.75C65.5625 42.5417 64.7396 45.2083 63.0938 47.75C61.4688 50.2917 58.5 53.0833 54.1875 56.125C51.625 57.8958 49.9062 59.1354 49.0312 59.8438C48.1771 60.5521 47.1667 61.4792 46 62.625H65.875V73Z" fill="#EBEBEB"/>
<path d="M65.875 73V75H67.875V73H65.875ZM27.6875 73L25.7008 72.7695L25.442 75H27.6875V73ZM31.6562 62.375L29.9937 61.2632L29.9921 61.2656L31.6562 62.375ZM44.1562 50.5938L45.3466 52.201L45.3491 52.1991L44.1562 50.5938ZM51.3125 36.625L49.9129 38.0537L49.9277 38.0681L49.9427 38.0823L51.3125 36.625ZM43.4375 36.6562L42.0376 35.2278L42.0304 35.2349L42.0233 35.242L43.4375 36.6562ZM41.375 42.0625L41.2138 44.056L43.0995 44.2085L43.3565 42.3342L41.375 42.0625ZM28.625 41.0312L26.6442 40.7549L26.3513 42.8539L28.4638 43.0247L28.625 41.0312ZM31.375 32.6562L33.0391 33.7657L33.0444 33.7577L31.375 32.6562ZM37 28.0312L37.805 29.8621L37.8123 29.8589L37 28.0312ZM57.5312 27.9375L56.7697 29.7869L56.7752 29.7891L57.5312 27.9375ZM63.4062 32.6562L61.7421 33.7656L61.7484 33.7751L61.7548 33.7844L63.4062 32.6562ZM63.0938 47.75L61.415 46.6629L61.4087 46.6727L63.0938 47.75ZM54.1875 56.125L55.3245 57.7703L55.3324 57.7649L55.3402 57.7594L54.1875 56.125ZM49.0312 59.8438L47.7729 58.2893L47.7637 58.2967L47.7546 58.3042L49.0312 59.8438ZM46 62.625L44.5986 61.1981L41.1094 64.625H46V62.625ZM65.875 62.625H67.875V60.625H65.875V62.625ZM65.875 71H27.6875V75H65.875V71ZM29.6742 73.2305C30.0734 69.7894 31.2787 66.5468 33.3204 63.4844L29.9921 61.2656C27.6171 64.8282 26.1766 68.6689 25.7008 72.7695L29.6742 73.2305ZM33.3188 63.4868C35.352 60.4464 39.2926 56.6846 45.3466 52.201L42.9659 48.9865C36.8116 53.5445 32.4188 57.6369 29.9937 61.2632L33.3188 63.4868ZM45.3491 52.1991C49.0602 49.4417 51.6867 47.1733 52.932 45.4548L49.693 43.1077C48.855 44.2642 46.7106 46.2041 42.9634 48.9884L45.3491 52.1991ZM52.932 45.4548C54.1304 43.801 54.875 42.0325 54.875 40.1875H50.875C50.875 40.9258 50.5779 41.8865 49.693 43.1077L52.932 45.4548ZM54.875 40.1875C54.875 38.2248 54.1151 36.5146 52.6823 35.1677L49.9427 38.0823C50.5932 38.6938 50.875 39.3585 50.875 40.1875H54.875ZM52.7121 35.1963C51.2808 33.7942 49.4697 33.125 47.4375 33.125V37.125C48.5303 37.125 49.3026 37.4558 49.9129 38.0537L52.7121 35.1963ZM47.4375 33.125C45.3543 33.125 43.4973 33.7974 42.0376 35.2278L44.8374 38.0847C45.4611 37.4735 46.2707 37.125 47.4375 37.125V33.125ZM42.0233 35.242C40.5297 36.7356 39.765 39.0816 39.3935 41.7908L43.3565 42.3342C43.6934 39.8767 44.3036 38.6186 44.8517 38.0705L42.0233 35.242ZM41.5362 40.069L28.7862 39.0378L28.4638 43.0247L41.2138 44.056L41.5362 40.069ZM30.6058 41.3076C31.0834 37.885 31.9355 35.4211 33.0391 33.7656L29.7109 31.5468C28.1479 33.8914 27.1666 37.0109 26.6442 40.7549L30.6058 41.3076ZM33.0444 33.7577C34.1467 32.0871 35.7075 30.7843 37.8049 29.8621L36.1951 26.2004C33.4592 27.4032 31.27 29.1838 29.7056 31.5548L33.0444 33.7577ZM37.8123 29.8589C39.8852 28.9376 42.9313 28.4062 47.0938 28.4062V24.4062C42.6728 24.4062 38.9898 24.9583 36.1877 26.2036L37.8123 29.8589ZM47.0938 28.4062C51.4635 28.4062 54.6412 28.9104 56.7698 29.7869L58.2928 26.0881C55.463 24.9229 51.6824 24.4062 47.0938 24.4062V28.4062ZM56.7752 29.7891C58.9275 30.668 60.5602 31.9928 61.7421 33.7656L65.0704 31.5468C63.4189 29.0697 61.135 27.2487 58.2873 26.0859L56.7752 29.7891ZM61.7548 33.7844C62.9581 35.5457 63.5625 37.5147 63.5625 39.75H67.5625C67.5625 36.7353 66.7294 33.9751 65.0577 31.5281L61.7548 33.7844ZM63.5625 39.75C63.5625 42.1232 62.8696 44.4165 61.415 46.6629L64.7725 48.8371C66.6095 46.0002 67.5625 42.9601 67.5625 39.75H63.5625ZM61.4087 46.6727C59.9909 48.8903 57.2702 51.5033 53.0348 54.4906L55.3402 57.7594C59.7298 54.6634 62.9466 51.6931 64.7788 48.8273L61.4087 46.6727ZM53.0505 54.4797C50.4946 56.2459 48.7154 57.5263 47.7729 58.2893L50.2896 61.3982C51.0971 60.7446 52.7554 59.5458 55.3245 57.7703L53.0505 54.4797ZM47.7546 58.3042C46.8423 59.0607 45.7884 60.0295 44.5986 61.1981L47.4014 64.0519C48.5449 62.9288 49.5119 62.0434 50.3079 61.3833L47.7546 58.3042ZM46 64.625H65.875V60.625H46V64.625ZM63.875 62.625V73H67.875V62.625H63.875Z" fill="#22291F" mask="url(#path-2-outside-1_547_444)"/>
</svg>
