<svg width="95" height="95" viewBox="0 0 95 95" fill="none" xmlns="http://www.w3.org/2000/svg">
<circle cx="47.5" cy="47.5" r="46.5" stroke="#22291F" stroke-width="2"/>
<mask id="path-2-outside-1_547_447" maskUnits="userSpaceOnUse" x="25" y="24" width="44" height="52" fill="black">
<rect fill="white" x="25" y="24" width="44" height="52"/>
<path d="M40.9688 40.4375L28.9375 38.2812C29.9375 34.4479 31.8542 31.5104 34.6875 29.4688C37.5417 27.4271 41.5729 26.4062 46.7812 26.4062C52.7604 26.4062 57.0833 27.5208 59.75 29.75C62.4167 31.9792 63.75 34.7812 63.75 38.1562C63.75 40.1354 63.2083 41.9271 62.125 43.5312C61.0417 45.1354 59.4062 46.5417 57.2188 47.75C58.9896 48.1875 60.3438 48.6979 61.2812 49.2812C62.8021 50.2188 63.9792 51.4583 64.8125 53C65.6667 54.5208 66.0938 56.3438 66.0938 58.4688C66.0938 61.1354 65.3958 63.6979 64 66.1562C62.6042 68.5938 60.5938 70.4792 57.9688 71.8125C55.3438 73.125 51.8958 73.7812 47.625 73.7812C43.4583 73.7812 40.1667 73.2917 37.75 72.3125C35.3542 71.3333 33.375 69.9062 31.8125 68.0312C30.2708 66.1354 29.0833 63.7604 28.25 60.9062L40.9688 59.2188C41.4688 61.7812 42.2396 63.5625 43.2812 64.5625C44.3438 65.5417 45.6875 66.0312 47.3125 66.0312C49.0208 66.0312 50.4375 65.4062 51.5625 64.1562C52.7083 62.9062 53.2812 61.2396 53.2812 59.1562C53.2812 57.0312 52.7292 55.3854 51.625 54.2188C50.5417 53.0521 49.0625 52.4688 47.1875 52.4688C46.1875 52.4688 44.8125 52.7188 43.0625 53.2188L43.7188 44.125C44.4271 44.2292 44.9792 44.2812 45.375 44.2812C47.0417 44.2812 48.4271 43.75 49.5312 42.6875C50.6562 41.625 51.2188 40.3646 51.2188 38.9062C51.2188 37.5104 50.8021 36.3958 49.9688 35.5625C49.1354 34.7292 47.9896 34.3125 46.5312 34.3125C45.0312 34.3125 43.8125 34.7708 42.875 35.6875C41.9375 36.5833 41.3021 38.1667 40.9688 40.4375Z"/>
</mask>
<path d="M40.9688 40.4375L28.9375 38.2812C29.9375 34.4479 31.8542 31.5104 34.6875 29.4688C37.5417 27.4271 41.5729 26.4062 46.7812 26.4062C52.7604 26.4062 57.0833 27.5208 59.75 29.75C62.4167 31.9792 63.75 34.7812 63.75 38.1562C63.75 40.1354 63.2083 41.9271 62.125 43.5312C61.0417 45.1354 59.4062 46.5417 57.2188 47.75C58.9896 48.1875 60.3438 48.6979 61.2812 49.2812C62.8021 50.2188 63.9792 51.4583 64.8125 53C65.6667 54.5208 66.0938 56.3438 66.0938 58.4688C66.0938 61.1354 65.3958 63.6979 64 66.1562C62.6042 68.5938 60.5938 70.4792 57.9688 71.8125C55.3438 73.125 51.8958 73.7812 47.625 73.7812C43.4583 73.7812 40.1667 73.2917 37.75 72.3125C35.3542 71.3333 33.375 69.9062 31.8125 68.0312C30.2708 66.1354 29.0833 63.7604 28.25 60.9062L40.9688 59.2188C41.4688 61.7812 42.2396 63.5625 43.2812 64.5625C44.3438 65.5417 45.6875 66.0312 47.3125 66.0312C49.0208 66.0312 50.4375 65.4062 51.5625 64.1562C52.7083 62.9062 53.2812 61.2396 53.2812 59.1562C53.2812 57.0312 52.7292 55.3854 51.625 54.2188C50.5417 53.0521 49.0625 52.4688 47.1875 52.4688C46.1875 52.4688 44.8125 52.7188 43.0625 53.2188L43.7188 44.125C44.4271 44.2292 44.9792 44.2812 45.375 44.2812C47.0417 44.2812 48.4271 43.75 49.5312 42.6875C50.6562 41.625 51.2188 40.3646 51.2188 38.9062C51.2188 37.5104 50.8021 36.3958 49.9688 35.5625C49.1354 34.7292 47.9896 34.3125 46.5312 34.3125C45.0312 34.3125 43.8125 34.7708 42.875 35.6875C41.9375 36.5833 41.3021 38.1667 40.9688 40.4375Z" fill="#EBEBEB"/>
<path d="M40.9688 40.4375L40.6159 42.4061L42.6478 42.7703L42.9475 40.728L40.9688 40.4375ZM28.9375 38.2812L27.0023 37.7764L26.4565 39.8685L28.5847 40.2499L28.9375 38.2812ZM34.6875 29.4688L33.5239 27.8421L33.5183 27.8461L34.6875 29.4688ZM59.75 29.75L61.0327 28.2155L59.75 29.75ZM57.2188 47.75L56.2517 45.9993L51.7837 48.4674L56.7391 49.6916L57.2188 47.75ZM61.2812 49.2812L60.2246 50.9794L60.2318 50.9838L61.2812 49.2812ZM64.8125 53L63.0531 53.951L63.0608 53.9653L63.0687 53.9794L64.8125 53ZM64 66.1562L65.7356 67.1501L65.7392 67.1438L64 66.1562ZM57.9688 71.8125L58.8632 73.6014L58.8745 73.5957L57.9688 71.8125ZM37.75 72.3125L36.9934 74.1639L36.999 74.1661L37.75 72.3125ZM31.8125 68.0312L30.2608 69.2931L30.2684 69.3024L30.2761 69.3116L31.8125 68.0312ZM28.25 60.9062L27.9869 58.9236L25.6771 59.2301L26.3302 61.4668L28.25 60.9062ZM40.9688 59.2188L42.9317 58.8357L42.5713 56.9886L40.7057 57.2361L40.9688 59.2188ZM43.2812 64.5625L41.8962 66.0053L41.9109 66.0194L41.9259 66.0332L43.2812 64.5625ZM51.5625 64.1562L50.0882 62.8048L50.082 62.8115L50.0759 62.8183L51.5625 64.1562ZM51.625 54.2188L50.1594 55.5797L50.1659 55.5866L50.1724 55.5935L51.625 54.2188ZM43.0625 53.2188L41.0677 53.0748L40.8618 55.9275L43.6119 55.1418L43.0625 53.2188ZM43.7188 44.125L44.0097 42.1463L41.879 41.8329L41.7239 43.981L43.7188 44.125ZM49.5312 42.6875L48.158 41.2335L48.1512 41.2399L48.1445 41.2464L49.5312 42.6875ZM42.875 35.6875L44.2567 37.1335L44.265 37.1255L44.2732 37.1175L42.875 35.6875ZM41.3216 38.4689L29.2903 36.3126L28.5847 40.2499L40.6159 42.4061L41.3216 38.4689ZM30.8727 38.7861C31.772 35.339 33.4515 32.8246 35.8567 31.0914L33.5183 27.8461C30.2568 30.1963 28.103 33.5568 27.0023 37.7764L30.8727 38.7861ZM35.8511 31.0954C38.2375 29.3883 41.7984 28.4062 46.7812 28.4062V24.4062C41.3474 24.4062 36.8458 25.4658 33.5239 27.8421L35.8511 31.0954ZM46.7812 28.4062C52.5987 28.4062 56.3411 29.5071 58.4673 31.2845L61.0327 28.2155C57.8256 25.5346 52.9221 24.4062 46.7812 24.4062V28.4062ZM58.4673 31.2845C60.695 33.1467 61.75 35.3938 61.75 38.1562H65.75C65.75 34.1687 64.1383 30.8116 61.0327 28.2155L58.4673 31.2845ZM61.75 38.1562C61.75 39.746 61.3224 41.1462 60.4676 42.4119L63.7824 44.6506C65.0943 42.708 65.75 40.5248 65.75 38.1562H61.75ZM60.4676 42.4119C59.6051 43.689 58.2404 44.9008 56.2517 45.9993L58.1858 49.5007C60.5721 48.1825 62.4782 46.5818 63.7824 44.6506L60.4676 42.4119ZM56.7391 49.6916C58.4206 50.1071 59.5438 50.5557 60.2246 50.9794L62.3379 47.5831C61.1437 46.8401 59.5586 46.2679 57.6984 45.8084L56.7391 49.6916ZM60.2318 50.9838C61.4603 51.7411 62.3898 52.724 63.0531 53.951L66.5719 52.049C65.5685 50.1927 64.1439 48.6964 62.3307 47.5787L60.2318 50.9838ZM63.0687 53.9794C63.7219 55.1423 64.0938 56.6124 64.0938 58.4688H68.0938C68.0938 56.0751 67.6115 53.8993 66.5563 52.0206L63.0687 53.9794ZM64.0938 58.4688C64.0938 60.7683 63.4963 62.9927 62.2608 65.1687L65.7392 67.1438C67.2953 64.4031 68.0938 61.5026 68.0938 58.4688H64.0938ZM62.2644 65.1624C61.072 67.2447 59.358 68.8636 57.063 70.0293L58.8745 73.5957C61.8295 72.0947 64.1364 69.9428 65.7356 67.1501L62.2644 65.1624ZM57.0743 70.0236C54.8243 71.1487 51.7163 71.7812 47.625 71.7812V75.7812C52.0754 75.7812 55.8632 75.1013 58.8632 73.6014L57.0743 70.0236ZM47.625 71.7812C43.58 71.7812 40.5793 71.3009 38.501 70.4589L36.999 74.1661C39.7541 75.2824 43.3367 75.7812 47.625 75.7812V71.7812ZM38.5066 70.4612C36.3947 69.598 34.6894 68.3595 33.3489 66.7509L30.2761 69.3116C32.0606 71.453 34.3137 73.0687 36.9934 74.1638L38.5066 70.4612ZM33.3642 66.7694C32.023 65.1201 30.9442 62.998 30.1698 60.3457L26.3302 61.4668C27.2224 64.5228 28.5186 67.1507 30.2608 69.2931L33.3642 66.7694ZM28.5131 62.8889L41.2318 61.2014L40.7057 57.2361L27.9869 58.9236L28.5131 62.8889ZM39.0058 59.6018C39.5291 62.2838 40.4006 64.5695 41.8962 66.0053L44.6663 63.1197C44.0786 62.5555 43.4084 61.2787 42.9317 58.8357L39.0058 59.6018ZM41.9259 66.0332C43.4045 67.3959 45.2528 68.0312 47.3125 68.0312V64.0312C46.1222 64.0312 45.283 63.6875 44.6366 63.0918L41.9259 66.0332ZM47.3125 68.0312C49.5776 68.0312 51.538 67.1732 53.0491 65.4942L50.0759 62.8183C49.337 63.6393 48.4641 64.0312 47.3125 64.0312V68.0312ZM53.0368 65.5077C54.5939 63.8091 55.2812 61.62 55.2812 59.1562H51.2812C51.2812 60.8591 50.8228 62.0034 50.0882 62.8048L53.0368 65.5077ZM55.2812 59.1562C55.2812 56.6895 54.6347 54.4893 53.0776 52.844L50.1724 55.5935C50.8236 56.2816 51.2812 57.373 51.2812 59.1562H55.2812ZM53.0906 52.8578C51.5613 51.2109 49.511 50.4688 47.1875 50.4688V54.4688C48.614 54.4688 49.522 54.8932 50.1594 55.5797L53.0906 52.8578ZM47.1875 50.4688C45.908 50.4688 44.3211 50.7791 42.5131 51.2957L43.6119 55.1418C45.3039 54.6584 46.467 54.4688 47.1875 54.4688V50.4688ZM45.0573 53.3627L45.7136 44.269L41.7239 43.981L41.0677 53.0748L45.0573 53.3627ZM43.4278 46.1037C44.1687 46.2127 44.8336 46.2812 45.375 46.2812V42.2812C45.1247 42.2812 44.6854 42.2456 44.0097 42.1463L43.4278 46.1037ZM45.375 46.2812C47.5091 46.2812 49.4069 45.5827 50.918 44.1286L48.1445 41.2464C47.4473 41.9173 46.5742 42.2812 45.375 42.2812V46.2812ZM50.9045 44.1415C52.4022 42.7271 53.2188 40.9514 53.2188 38.9062H49.2188C49.2188 39.7778 48.9103 40.5229 48.158 41.2335L50.9045 44.1415ZM53.2188 38.9062C53.2188 37.0851 52.6597 35.425 51.383 34.1483L48.5545 36.9767C48.9445 37.3667 49.2188 37.9357 49.2188 38.9062H53.2188ZM51.383 34.1483C50.0897 32.855 48.3865 32.3125 46.5312 32.3125V36.3125C47.5926 36.3125 48.1812 36.6033 48.5545 36.9767L51.383 34.1483ZM46.5312 32.3125C44.5901 32.3125 42.8424 32.9222 41.4768 34.2575L44.2732 37.1175C44.7826 36.6195 45.4724 36.3125 46.5312 36.3125V32.3125ZM41.4933 34.2415C40.0665 35.6049 39.3436 37.7375 38.99 40.147L42.9475 40.728C43.2605 38.5958 43.8085 37.5618 44.2567 37.1335L41.4933 34.2415Z" fill="#22291F" mask="url(#path-2-outside-1_547_447)"/>
</svg>
