<svg width="95" height="95" viewBox="0 0 95 95" fill="none" xmlns="http://www.w3.org/2000/svg">
<circle cx="47.5" cy="47.5" r="46.5" stroke="#22291F" stroke-width="2"/>
<mask id="path-2-outside-1_547_450" maskUnits="userSpaceOnUse" x="25" y="24" width="45" height="51" fill="black">
<rect fill="white" x="25" y="24" width="45" height="51"/>
<path d="M50.5 64.4375H27.3125V53.9688L50.5 26.4062H61.5938V54.5625H67.3438V64.4375H61.5938V73H50.5V64.4375ZM50.5 54.5625V40.1562L38.25 54.5625H50.5Z"/>
</mask>
<path d="M50.5 64.4375H27.3125V53.9688L50.5 26.4062H61.5938V54.5625H67.3438V64.4375H61.5938V73H50.5V64.4375ZM50.5 54.5625V40.1562L38.25 54.5625H50.5Z" fill="#EBEBEB"/>
<path d="M50.5 64.4375H52.5V62.4375H50.5V64.4375ZM27.3125 64.4375H25.3125V66.4375H27.3125V64.4375ZM27.3125 53.9688L25.782 52.6812L25.3125 53.2394V53.9688H27.3125ZM50.5 26.4062V24.4062H49.5689L48.9695 25.1187L50.5 26.4062ZM61.5938 26.4062H63.5938V24.4062H61.5938V26.4062ZM61.5938 54.5625H59.5938V56.5625H61.5938V54.5625ZM67.3438 54.5625H69.3438V52.5625H67.3438V54.5625ZM67.3438 64.4375V66.4375H69.3438V64.4375H67.3438ZM61.5938 64.4375V62.4375H59.5938V64.4375H61.5938ZM61.5938 73V75H63.5938V73H61.5938ZM50.5 73H48.5V75H50.5V73ZM50.5 54.5625V56.5625H52.5V54.5625H50.5ZM50.5 40.1562H52.5V34.7168L48.9764 38.8607L50.5 40.1562ZM38.25 54.5625L36.7264 53.2669L33.924 56.5625H38.25V54.5625ZM50.5 62.4375H27.3125V66.4375H50.5V62.4375ZM29.3125 64.4375V53.9688H25.3125V64.4375H29.3125ZM28.843 55.2563L52.0305 27.6938L48.9695 25.1187L25.782 52.6812L28.843 55.2563ZM50.5 28.4062H61.5938V24.4062H50.5V28.4062ZM59.5938 26.4062V54.5625H63.5938V26.4062H59.5938ZM61.5938 56.5625H67.3438V52.5625H61.5938V56.5625ZM65.3438 54.5625V64.4375H69.3438V54.5625H65.3438ZM67.3438 62.4375H61.5938V66.4375H67.3438V62.4375ZM59.5938 64.4375V73H63.5938V64.4375H59.5938ZM61.5938 71H50.5V75H61.5938V71ZM52.5 73V64.4375H48.5V73H52.5ZM52.5 54.5625V40.1562H48.5V54.5625H52.5ZM48.9764 38.8607L36.7264 53.2669L39.7736 55.8581L52.0236 41.4518L48.9764 38.8607ZM38.25 56.5625H50.5V52.5625H38.25V56.5625Z" fill="#22291F" mask="url(#path-2-outside-1_547_450)"/>
</svg>
