<svg width="95" height="95" viewBox="0 0 95 95" fill="none" xmlns="http://www.w3.org/2000/svg">
<path d="M94 47.5C94 73.1812 73.1812 94 47.5 94C21.8188 94 1 73.1812 1 47.5C1 21.8188 21.8188 1 47.5 1C73.1812 1 94 21.8188 94 47.5Z" stroke="#22291F" stroke-width="2"/>
<mask id="path-2-outside-1_547_453" maskUnits="userSpaceOnUse" x="25" y="25" width="44" height="51" fill="black">
<rect fill="white" x="25" y="25" width="44" height="51"/>
<path d="M33.7812 27.1875H64V37.3438H43.5312L42.4375 44.2188C43.8542 43.5521 45.25 43.0521 46.625 42.7188C48.0208 42.3854 49.3958 42.2188 50.75 42.2188C55.3333 42.2188 59.0521 43.6042 61.9062 46.375C64.7604 49.1458 66.1875 52.6354 66.1875 56.8438C66.1875 59.8021 65.4479 62.6458 63.9688 65.375C62.5104 68.1042 60.4271 70.1875 57.7188 71.625C55.0312 73.0625 51.5833 73.7812 47.375 73.7812C44.3542 73.7812 41.7604 73.5 39.5938 72.9375C37.4479 72.3542 35.6146 71.5 34.0938 70.375C32.5938 69.2292 31.375 67.9375 30.4375 66.5C29.5 65.0625 28.7188 63.2708 28.0938 61.125L40.9688 59.7188C41.2812 61.7812 42.0104 63.3542 43.1562 64.4375C44.3021 65.5 45.6667 66.0312 47.25 66.0312C49.0208 66.0312 50.4792 65.3646 51.625 64.0312C52.7917 62.6771 53.375 60.6667 53.375 58C53.375 55.2708 52.7917 53.2708 51.625 52C50.4583 50.7292 48.9062 50.0938 46.9688 50.0938C45.7396 50.0938 44.5521 50.3958 43.4062 51C42.5521 51.4375 41.6146 52.2292 40.5938 53.375L29.75 51.8125L33.7812 27.1875Z"/>
</mask>
<path d="M33.7812 27.1875H64V37.3438H43.5312L42.4375 44.2188C43.8542 43.5521 45.25 43.0521 46.625 42.7188C48.0208 42.3854 49.3958 42.2188 50.75 42.2188C55.3333 42.2188 59.0521 43.6042 61.9062 46.375C64.7604 49.1458 66.1875 52.6354 66.1875 56.8438C66.1875 59.8021 65.4479 62.6458 63.9688 65.375C62.5104 68.1042 60.4271 70.1875 57.7188 71.625C55.0312 73.0625 51.5833 73.7812 47.375 73.7812C44.3542 73.7812 41.7604 73.5 39.5938 72.9375C37.4479 72.3542 35.6146 71.5 34.0938 70.375C32.5938 69.2292 31.375 67.9375 30.4375 66.5C29.5 65.0625 28.7188 63.2708 28.0938 61.125L40.9688 59.7188C41.2812 61.7812 42.0104 63.3542 43.1562 64.4375C44.3021 65.5 45.6667 66.0312 47.25 66.0312C49.0208 66.0312 50.4792 65.3646 51.625 64.0312C52.7917 62.6771 53.375 60.6667 53.375 58C53.375 55.2708 52.7917 53.2708 51.625 52C50.4583 50.7292 48.9062 50.0938 46.9688 50.0938C45.7396 50.0938 44.5521 50.3958 43.4062 51C42.5521 51.4375 41.6146 52.2292 40.5938 53.375L29.75 51.8125L33.7812 27.1875Z" fill="#EBEBEB"/>
<path d="M33.7812 27.1875V25.1875H32.082L31.8075 26.8644L33.7812 27.1875ZM64 27.1875H66V25.1875H64V27.1875ZM64 37.3438V39.3438H66V37.3438H64ZM43.5312 37.3438V35.3438H41.8243L41.5561 37.0295L43.5312 37.3438ZM42.4375 44.2188L40.4623 43.9045L39.8684 47.6381L43.2891 46.0284L42.4375 44.2188ZM46.625 42.7188L46.1604 40.7734L46.1538 40.775L46.625 42.7188ZM63.9688 65.375L62.2104 64.422L62.2048 64.4324L63.9688 65.375ZM57.7188 71.625L56.7811 69.8584L56.7754 69.8614L57.7188 71.625ZM39.5938 72.9375L39.0691 74.8675L39.0801 74.8705L39.0912 74.8733L39.5938 72.9375ZM34.0938 70.375L32.8797 71.9643L32.8919 71.9737L32.9043 71.9829L34.0938 70.375ZM28.0938 61.125L27.8766 59.1368L25.5069 59.3956L26.1735 61.6843L28.0938 61.125ZM40.9688 59.7188L42.9462 59.4191L42.6588 57.5223L40.7516 57.7306L40.9688 59.7188ZM43.1562 64.4375L41.7822 65.8908L41.7893 65.8974L41.7964 65.904L43.1562 64.4375ZM51.625 64.0312L50.1098 62.7258L50.1082 62.7277L51.625 64.0312ZM43.4062 51L44.318 52.7801L44.3286 52.7747L44.3391 52.7691L43.4062 51ZM40.5938 53.375L40.3085 55.3546L41.3722 55.5078L42.0871 54.7054L40.5938 53.375ZM29.75 51.8125L27.7763 51.4894L27.4469 53.5013L29.4648 53.7921L29.75 51.8125ZM33.7812 29.1875H64V25.1875H33.7812V29.1875ZM62 27.1875V37.3438H66V27.1875H62ZM64 35.3438H43.5312V39.3438H64V35.3438ZM41.5561 37.0295L40.4623 43.9045L44.4127 44.533L45.5064 37.658L41.5561 37.0295ZM43.2891 46.0284C44.5966 45.4131 45.8652 44.9609 47.0962 44.6625L46.1538 40.775C44.6348 41.1433 43.1118 41.6911 41.5859 42.4091L43.2891 46.0284ZM47.0896 44.6641C48.3423 44.3649 49.5613 44.2188 50.75 44.2188V40.2188C49.2303 40.2188 47.6994 40.4059 46.1604 40.7734L47.0896 44.6641ZM50.75 44.2188C54.8986 44.2188 58.0893 45.4569 60.5131 47.81L63.2994 44.94C60.0149 41.7514 55.7681 40.2188 50.75 40.2188V44.2188ZM60.5131 47.81C62.955 50.1805 64.1875 53.1412 64.1875 56.8438H68.1875C68.1875 52.1297 66.5659 48.1111 63.2994 44.94L60.5131 47.81ZM64.1875 56.8438C64.1875 59.4527 63.5391 61.9705 62.2104 64.422L65.7271 66.328C67.3568 63.3212 68.1875 60.1515 68.1875 56.8438H64.1875ZM62.2048 64.4324C60.932 66.8143 59.1348 68.6092 56.7811 69.8584L58.6564 73.3916C61.7194 71.7658 64.0888 69.394 65.7327 66.3176L62.2048 64.4324ZM56.7754 69.8614C54.4675 71.0959 51.3732 71.7812 47.375 71.7812V75.7812C51.7935 75.7812 55.595 75.0291 58.6621 73.3886L56.7754 69.8614ZM47.375 71.7812C44.4689 71.7812 42.0531 71.5097 40.0963 71.0017L39.0912 74.8733C41.4677 75.4903 44.2395 75.7812 47.375 75.7812V71.7812ZM40.1184 71.0075C38.1709 70.4781 36.5726 69.7209 35.2832 68.7671L32.9043 71.9829C34.6566 73.2791 36.7249 74.2302 39.0691 74.8675L40.1184 71.0075ZM35.3078 68.7857C33.9707 67.7642 32.9141 66.6362 32.1127 65.4075L28.7623 67.5925C29.8359 69.2388 31.2168 70.6941 32.8797 71.9643L35.3078 68.7857ZM32.1127 65.4075C31.3094 64.1758 30.5996 62.5764 30.014 60.5657L26.1735 61.6843C26.8379 63.9652 27.6906 65.9492 28.7623 67.5925L32.1127 65.4075ZM28.3109 63.1132L41.1859 61.7069L40.7516 57.7306L27.8766 59.1368L28.3109 63.1132ZM38.9913 60.0184C39.3491 62.3794 40.2211 64.4148 41.7822 65.8908L44.5303 62.9842C43.7998 62.2935 43.2134 61.1831 42.9462 59.4191L38.9913 60.0184ZM41.7964 65.904C43.3174 67.3145 45.1697 68.0312 47.25 68.0312V64.0312C46.1636 64.0312 45.2867 63.6855 44.5161 62.971L41.7964 65.904ZM47.25 68.0312C49.5989 68.0312 51.6129 67.1139 53.1418 65.3348L50.1082 62.7277C49.3455 63.6152 48.4428 64.0312 47.25 64.0312V68.0312ZM53.1402 65.3367C54.742 63.4775 55.375 60.9174 55.375 58H51.375C51.375 60.416 50.8413 61.8767 50.1098 62.7258L53.1402 65.3367ZM55.375 58C55.375 55.0483 54.7539 52.4509 53.0983 50.6475L50.1517 53.3525C50.8294 54.0908 51.375 55.4934 51.375 58H55.375ZM53.0983 50.6475C51.5041 48.911 49.39 48.0938 46.9688 48.0938V52.0938C48.4225 52.0938 49.4125 52.5474 50.1517 53.3525L53.0983 50.6475ZM46.9688 48.0938C45.3969 48.0938 43.8908 48.4835 42.4734 49.2309L44.3391 52.7691C45.2133 52.3082 46.0823 52.0938 46.9688 52.0938V48.0938ZM42.4945 49.2199C41.3284 49.8172 40.199 50.8115 39.1004 52.0446L42.0871 54.7054C43.0301 53.6469 43.7758 53.0578 44.318 52.7801L42.4945 49.2199ZM40.879 51.3954L30.0352 49.8329L29.4648 53.7921L40.3085 55.3546L40.879 51.3954ZM31.7237 52.1356L35.755 27.5106L31.8075 26.8644L27.7763 51.4894L31.7237 52.1356Z" fill="#22291F" mask="url(#path-2-outside-1_547_453)"/>
</svg>
