<svg width="562" height="88" viewBox="0 0 562 88" fill="none" xmlns="http://www.w3.org/2000/svg">
<path d="M550.667 6C550.667 8.94552 553.055 11.3333 556 11.3333C558.945 11.3333 561.333 8.94552 561.333 6C561.333 3.05448 558.945 0.666667 556 0.666667C553.055 0.666667 550.667 3.05448 550.667 6ZM1 6V5H0V6H1ZM1 32H0V33H1V32ZM384 32H385V31H384V32ZM384 57V58H385V57H384ZM248.5 57V56H247.5V57H248.5ZM247.793 87.2071C248.183 87.5976 248.817 87.5976 249.207 87.2071L255.571 80.8431C255.962 80.4526 255.962 79.8195 255.571 79.4289C255.181 79.0384 254.547 79.0384 254.157 79.4289L248.5 85.0858L242.843 79.4289C242.453 79.0384 241.819 79.0384 241.429 79.4289C241.038 79.8195 241.038 80.4526 241.429 80.8431L247.793 87.2071ZM556 5H1V7H556V5ZM0 6V32H2V6H0ZM1 33H384V31H1V33ZM383 32V57H385V32H383ZM384 56H248.5V58H384V56ZM247.5 57V86.5H249.5V57H247.5Z" fill="#FFA500"/>
</svg>
