<svg width="251" height="164" viewBox="0 0 251 164" fill="none" xmlns="http://www.w3.org/2000/svg">
<line x1="107.186" y1="71.9258" x2="107.186" y2="164.222" stroke="#EBEBEB" stroke-width="10"/>
<path d="M32.9631 159.278H85.7039" stroke="#EBEBEB" stroke-width="10"/>
<line x1="190" y1="43" x2="190" y2="155" stroke="#EBEBEB" stroke-width="10"/>
<line x1="246" y1="10" x2="246" y2="164" stroke="#EBEBEB" stroke-width="10"/>
<line x1="32.9631" y1="129.556" x2="85.5469" y2="129.556" stroke="#EBEBEB" stroke-width="10"/>
<line x1="80.8149" y1="124.667" x2="80.8149" y2="164.223" stroke="#EBEBEB" stroke-width="10"/>
<line x1="133.556" y1="71.9258" x2="133.556" y2="164.222" stroke="#EBEBEB" stroke-width="10"/>
<line x1="85.7039" y1="159.223" x2="250.519" y2="159.223" stroke="#EBEBEB" stroke-width="10"/>
<line x1="0.000244141" y1="159.223" x2="42.8521" y2="159.223" stroke="#EBEBEB" stroke-width="10"/>
<line x1="37.9631" y1="95" x2="37.9631" y2="134.556" stroke="#EBEBEB" stroke-width="10"/>
<line x1="128.556" y1="37.2598" x2="194.482" y2="37.2598" stroke="#FFA500" stroke-width="10" stroke-dasharray="2 2"/>
<line x1="190" y1="10" x2="190" y2="43" stroke="#EBEBEB" stroke-width="10"/>
<line x1="80.8149" y1="62.0381" x2="80.8149" y2="101.594" stroke="#EBEBEB" stroke-width="10"/>
<line x1="133.556" y1="32.3711" x2="133.556" y2="71.9267" stroke="#EBEBEB" stroke-width="10"/>
<line x1="75.8149" y1="66.9268" x2="131.852" y2="66.9268" stroke="#EBEBEB" stroke-width="10"/>
<line x1="32.9631" y1="99.8896" x2="85.7039" y2="99.8896" stroke="#EBEBEB" stroke-width="10"/>
<line x1="251" y1="5" x2="185" y2="5" stroke="#EBEBEB" stroke-width="10"/>
</svg>
