<svg width="104" height="77" viewBox="0 0 104 77" fill="none" xmlns="http://www.w3.org/2000/svg">
<path d="M2.838 76V53.362H7.689L12.837 68.047C12.969 68.443 13.101 68.883 13.233 69.367C13.387 69.829 13.519 70.269 13.629 70.687C13.761 71.105 13.86 71.468 13.926 71.776H14.157C14.223 71.446 14.311 71.072 14.421 70.654C14.531 70.214 14.652 69.763 14.784 69.301C14.916 68.839 15.037 68.421 15.147 68.047L20.295 53.362H25.113V76H21.978V62.734C21.978 62.052 21.989 61.315 22.011 60.523C22.033 59.709 22.055 58.972 22.077 58.312C22.099 57.63 22.11 57.146 22.11 56.86H21.846C21.78 57.146 21.67 57.553 21.516 58.081C21.362 58.587 21.197 59.126 21.021 59.698C20.867 60.248 20.724 60.743 20.592 61.183L15.279 76H12.573L7.26 61.183C7.128 60.809 6.985 60.38 6.831 59.896C6.699 59.39 6.556 58.873 6.402 58.345C6.27 57.817 6.138 57.322 6.006 56.86H5.775C5.797 57.344 5.808 57.949 5.808 58.675C5.83 59.379 5.841 60.094 5.841 60.82C5.863 61.524 5.874 62.162 5.874 62.734V76H2.838ZM40.9424 76.396C38.5884 76.396 36.5644 75.967 34.8704 75.109C33.1984 74.251 31.9004 72.953 30.9764 71.215C30.0744 69.477 29.6234 67.299 29.6234 64.681C29.6234 62.041 30.0744 59.863 30.9764 58.147C31.9004 56.409 33.1984 55.111 34.8704 54.253C36.5644 53.395 38.5884 52.966 40.9424 52.966C43.2964 52.966 45.3094 53.395 46.9814 54.253C48.6754 55.111 49.9734 56.409 50.8754 58.147C51.7994 59.863 52.2614 62.041 52.2614 64.681C52.2614 67.299 51.7994 69.477 50.8754 71.215C49.9734 72.953 48.6754 74.251 46.9814 75.109C45.3094 75.967 43.2964 76.396 40.9424 76.396ZM40.9424 73.69C42.1744 73.69 43.2854 73.525 44.2754 73.195C45.2874 72.865 46.1344 72.348 46.8164 71.644C47.5204 70.918 48.0594 70.016 48.4334 68.938C48.8074 67.838 48.9944 66.54 48.9944 65.044V64.351C48.9944 62.833 48.8074 61.535 48.4334 60.457C48.0594 59.357 47.5204 58.455 46.8164 57.751C46.1344 57.025 45.2874 56.497 44.2754 56.167C43.2854 55.837 42.1744 55.672 40.9424 55.672C39.6884 55.672 38.5664 55.837 37.5764 56.167C36.5864 56.497 35.7394 57.025 35.0354 57.751C34.3314 58.455 33.7924 59.357 33.4184 60.457C33.0664 61.535 32.8904 62.833 32.8904 64.351V65.044C32.8904 66.54 33.0664 67.838 33.4184 68.938C33.7924 70.016 34.3314 70.918 35.0354 71.644C35.7394 72.348 36.5864 72.865 37.5764 73.195C38.5664 73.525 39.6884 73.69 40.9424 73.69ZM61.5558 76V56.101H53.8008V53.362H72.5118V56.101H64.6908V76H61.5558ZM76.0245 76V53.362H79.1595V76H76.0245ZM90.7624 76L82.3144 53.362H85.7134L91.5214 69.4C91.6534 69.708 91.7854 70.06 91.9174 70.456C92.0494 70.852 92.1814 71.237 92.3134 71.611C92.4454 71.985 92.5664 72.315 92.6764 72.601H92.8744C92.9624 72.337 93.0724 72.018 93.2044 71.644C93.3364 71.27 93.4684 70.896 93.6004 70.522C93.7324 70.126 93.8644 69.752 93.9964 69.4L99.7384 53.362H103.038L94.5574 76H90.7624Z" fill="#EBEBEB"/>
<line x1="71.5" y1="13" x2="71.5" y2="49" stroke="#EBEBEB" stroke-width="3"/>
<line x1="88.5" y1="2" x2="88.5" y2="50" stroke="#EBEBEB" stroke-width="3"/>
<line x1="46.5" y1="22" x2="46.5" y2="50" stroke="#EBEBEB" stroke-width="3"/>
<path d="M24 48.5H40" stroke="#EBEBEB" stroke-width="3"/>
<line x1="24" y1="39.5" x2="39.9524" y2="39.5" stroke="#EBEBEB" stroke-width="3"/>
<line x1="38.5" y1="38" x2="38.5" y2="50" stroke="#EBEBEB" stroke-width="3"/>
<line x1="54.5" y1="22" x2="54.5" y2="50" stroke="#EBEBEB" stroke-width="3"/>
<line x1="40" y1="48.5" x2="90" y2="48.5" stroke="#EBEBEB" stroke-width="3"/>
<line x1="14" y1="48.5" x2="27" y2="48.5" stroke="#EBEBEB" stroke-width="3"/>
<line x1="25.5" y1="29" x2="25.5" y2="41" stroke="#EBEBEB" stroke-width="3"/>
<line x1="53" y1="11.5" x2="73" y2="11.5" stroke="#FFA500" stroke-width="3" stroke-dasharray="2 2"/>
<line x1="38.5" y1="19" x2="38.5" y2="31" stroke="#EBEBEB" stroke-width="3"/>
<line x1="54.5" y1="10" x2="54.5" y2="22" stroke="#EBEBEB" stroke-width="3"/>
<line x1="71.5" y1="3" x2="71.5" y2="13" stroke="#EBEBEB" stroke-width="3"/>
<line x1="37" y1="20.5" x2="54" y2="20.5" stroke="#EBEBEB" stroke-width="3"/>
<line x1="90" y1="1.5" x2="70" y2="1.5" stroke="#EBEBEB" stroke-width="3"/>
<line x1="24" y1="30.5" x2="40" y2="30.5" stroke="#EBEBEB" stroke-width="3"/>
</svg>
